<?xml version="1.0" encoding="UTF-8"?>
<!DOCTYPE svg PUBLIC "-//W3C//DTD SVG 1.1//EN" "http://www.w3.org/Graphics/SVG/1.1/DTD/svg11.dtd">
<!-- Creator: CorelDRAW -->
<svg xmlns="http://www.w3.org/2000/svg" xml:space="preserve" width="2048px" height="2048px" style="shape-rendering:geometricPrecision; text-rendering:geometricPrecision; image-rendering:optimizeQuality; fill-rule:evenodd; clip-rule:evenodd"
viewBox="0 0 2048 2048"
 xmlns:xlink="http://www.w3.org/1999/xlink">
 <defs>
  <style type="text/css">
   <![CDATA[
    .fil1 {fill:none}
    .fil0 {fill:#424242;fill-rule:nonzero}
   ]]>
  </style>
 </defs>
 <g id="Layer_x0020_1">
  <metadata id="CorelCorpID_0Corel-Layer"/>
  <g id="_376143512">
   <g>
    <path id="_376144328" class="fil0" d="M1026.01 1529.15c241.81,60.5646 521.069,130.491 706.412,-74.7627 4.98307,-6.02599 12.1701,-10.2543 20.5358,-11.3457 17.5406,-2.2878 33.6177,10.0784 35.9044,27.6201l-0.106299 0.0141732c62.5099,479.26 -799.843,262.146 -851.104,248.845 -1.05827,-0.187795 -2.11772,-0.429922 -3.17362,-0.72756l-119.369 -33.8067 -17.5595 40.9725c-4.40906,12.7417 -16.6217,21.7937 -30.8351,21.5433l0.00236221 -0.120473 -460.824 -8.07875c-8.91615,0.61063 -18.039,-2.48977 -24.854,-9.30473l0.00236221 -0.00236221c-47.3327,-47.3327 -13.9016,-250.601 -9.27166,-277.29 0.981497,-11.3988 8.0504,-21.9012 19.3016,-26.7225 16.2591,-6.96851 35.0906,0.564567 42.0591,16.8236l-0.0377953 0.106299c45.0449,105.108 303.594,46.2059 329.12,40.1114 1.22126,-0.386221 2.48032,-0.703938 3.77126,-0.946064l0.022441 0.0767717c98.5761,-18.4831 223.694,12.8539 360.004,46.9937z"/>
    <path id="_376144184" class="fil0" d="M1739.44 1413.24c-42.2303,-24.3768 -106.466,-39.0036 -181.681,-56.1237 -80.9115,-18.4169 -176.19,-40.1292 -266.147,-79.1304 -0.318898,0.95315 -0.640158,1.89921 -0.964961,2.83465 -21.013,60.489 -61.1481,108.604 -123.323,129.242 -33.5126,11.1248 -69.7134,-7.09725 -80.7934,-40.6146 -11.0728,-33.4973 7.11615,-69.6308 40.5898,-80.7426 28.8886,-9.58938 44.2512,-42.9579 49.8059,-73.9323 -6.83268,-4.79292 -13.5638,-9.75828 -20.1862,-14.8914 -22.2213,53.3185 -60.6532,95.2052 -117.54,114.089 -33.5126,11.1248 -69.7134,-7.09725 -80.7934,-40.6146 -11.0728,-33.4985 7.11615,-69.6308 40.591,-80.7426 37.2957,-12.3803 52.0536,-64.3973 52.2567,-99.7265 0.00826772,-2.24173 0.133465,-4.45276 0.368504,-6.63426 -39.7985,-61.6571 -67.4823,-138.325 -76.6477,-234.572l0.105118 -0.034252c-1.31457,-13.8106 -11.2169,-24.7323 -23.9221,-27.9945 -32.8772,-10.6228 -490.897,-153.742 -653.952,70.3571l-0.0389764 -0.0283465c-5.56772,7.65473 -7.24843,16.95 -5.4189,25.5319 3.33425,19.2473 45.9957,274.592 -2.87717,473.598 29.6918,-7.03465 61.2993,8.1378 73.7032,37.0843l1.03465 2.41181c33.2268,66.2067 235.005,34.7918 290.064,19.552 3.53622,-0.977954 1.10906,-0.562205 6.40512,-1.55669 58.8745,-11.0528 116.361,-6.07323 176.89,3.7004 66.1477,10.6807 131.856,27.5079 196.827,43.7811 53.328,13.3559 106.647,26.8229 160.492,37.9642 111.705,23.113 239.177,39.5528 350.177,5.16615 65.1567,-20.1839 119.146,-56.1839 163.729,-107.767 8.34922,-9.66261 19.1374,-16.7067 31.2461,-20.2063z"/>
    <path id="_376144616" class="fil0" d="M1275.22 1189.35c0.068504,-17.6209 -14.1591,-31.963 -31.7811,-32.0315 -17.6209,-0.068504 -31.963,14.1591 -32.0315,31.7811 -0.0011811,0.301181 -0.0413386,105.281 -74.1969,129.999 -16.7221,5.52756 -25.7977,23.5666 -20.2689,40.2898 5.52756,16.7221 23.5666,25.7977 40.2898,20.2689 118.029,-39.3437 117.986,-189.875 117.989,-190.308z"/>
    <path id="_376144400" class="fil0" d="M1147.1 1093.26c0.068504,-17.6221 -14.1602,-31.9642 -31.7811,-32.0327 -17.6221,-0.068504 -31.9642,14.1602 -32.0327,31.7811 -0.0011811,0.302362 -0.0413386,105.281 -74.1957,129.999 -16.7232,5.52874 -25.7977,23.5677 -20.2701,40.2898 5.52874,16.7232 23.5677,25.7977 40.2898,20.2701 118.03,-39.3437 117.987,-189.875 117.99,-190.308z"/>
   </g>
   <g>
    <path id="_376144520" class="fil0" d="M1118.82 936.145c212.512,53.2252 457.934,114.679 620.821,-65.7036 4.37953,-5.29725 10.6949,-9.013 18.0473,-9.97087 15.4158,-2.01142 29.5441,8.85709 31.5544,24.2717l-0.0933072 0.0129921c35.3244,270.828 -265.407,288.613 -496.595,263.693 -11.6776,-14.0752 -29.2807,-23.0788 -48.9945,-23.1555 -13.8024,-0.0531496 -26.6032,4.27559 -37.0843,11.6776 -10.5969,-1.6689 -20.8654,-3.37559 -30.7595,-5.09764 2.13543,-13.2142 3.38504,-26.387 3.40866,-38.5016 0.164173,-35.2701 -28.3819,-64.0347 -63.6875,-64.1717 -19.0807,-0.0744095 -36.2469,8.2252 -48.0166,21.4429 -24.9579,-43.4847 -41.3989,-90.4713 -51.3213,-139.262 33.163,7.34292 67.5166,15.9473 102.721,24.7642z"/>
    <path id="_376144352" class="fil0" d="M1745.81 834.275c-37.1138,-21.4217 -93.5658,-34.2768 -159.667,-49.3229 -71.1083,-16.1847 -154.841,-35.2666 -233.899,-69.5422 -0.281103,0.838583 -0.563386,1.67008 -0.849213,2.49095 -18.4677,53.1603 -53.739,95.445 -108.379,113.583 -29.4532,9.77717 -61.2662,-6.23741 -71.0044,-35.6941 -9.73111,-29.4378 6.25394,-61.193 35.6717,-70.9583 25.3878,-8.42835 38.8902,-37.754 43.7717,-64.9749 -6.00473,-4.213 -11.9209,-8.57599 -17.7414,-13.0878 -19.5284,46.8579 -53.3032,83.6705 -103.297,100.265 -29.452,9.77717 -61.2662,-6.23623 -71.0044,-35.6929 -9.73111,-29.439 6.25394,-61.1941 35.6717,-70.9595 32.778,-10.8803 45.7465,-56.5937 45.926,-87.6426 0.00826772,-1.97008 0.11811,-3.91418 0.323622,-5.82993 -34.976,-54.1867 -59.3056,-121.566 -67.3607,-206.151l0.0921261 -0.0295276c-1.15512,-12.1382 -9.85749,-21.7347 -21.0236,-24.6024 -28.8933,-9.33544 -431.418,-135.113 -574.717,61.8319l-0.034252 -0.0248032c-4.89213,6.72756 -6.36969,14.8961 -4.75985,22.4374 2.56536,14.811 31.6229,188.682 9.98859,349.115 34.9205,-7.18819 70.6453,-10.7622 105.604,-11.8984 81.2044,-2.63858 164.531,7.31457 244.069,23.4248 43.3158,8.77442 84.5434,19.611 126.879,31.8733 25.4918,7.38308 44.3622,29.0835 46.8981,55.7256l1.12205 11.7898c0.798426,7.01457 1.7126,14.0043 2.74725,20.9658 38.5122,8.21457 76.8131,17.9504 114.828,27.4725 46.865,11.7378 93.7253,23.5725 141.045,33.3638 98.1709,20.3126 210.199,34.7611 307.747,4.54134 57.2634,-17.7402 104.711,-49.376 143.891,-94.7103 7.33819,-8.49095 16.8201,-14.6823 27.4607,-17.7591z"/>
    <path id="_376143968" class="fil0" d="M1337.84 637.519c0.0602363,-15.4866 -12.4441,-28.0902 -27.9307,-28.1504 -15.4854,-0.0602363 -28.0902,12.4429 -28.1504,27.9284 -0.0011811,0.266929 -0.0366142,92.5253 -65.2063,114.249 -14.6965,4.85788 -22.6713,20.7118 -17.8134,35.4083 4.85906,14.6965 20.7118,22.6713 35.4083,17.8122 103.727,-34.5756 103.69,-166.869 103.693,-167.248z"/>
    <path id="_376143800" class="fil0" d="M1225.24 553.069c0.0602363,-15.4866 -12.4441,-28.0902 -27.9307,-28.1504 -15.4854,-0.0602363 -28.089,12.4441 -28.1492,27.9295 -0.0011811,0.265748 -0.0377953,92.5253 -65.2075,114.248 -14.6965,4.85906 -22.6713,20.7118 -17.8134,35.4083 4.85906,14.6965 20.7118,22.6713 35.4083,17.8134 103.728,-34.5768 103.69,-166.869 103.693,-167.249z"/>
   </g>
  </g>
 </g>
 <rect class="fil1" width="2048" height="2048"/>
</svg>
